<svg width="280" height="280" viewBox="0 0 280 280" fill="none" xmlns="http://www.w3.org/2000/svg">
<path d="M67.5818 250.822C67.817 249.814 52.718 176.543 52.9112 173.864C50.66 174.64 14.2194 173.67 13.3262 171.497C10.7264 178.832 12.5898 212.635 13.5978 221.016C14.6077 229.245 16.018 237.421 17.8286 245.544C18.411 248.106 18.9486 251.444 21.4378 252.336C28.2684 254.819 28.7332 251.909 28.8494 250.978C30.7128 235.221 30.7912 219.31 33.5842 203.708C35.7584 191.406 39.5608 182.946 40.8418 180.967C39.6392 184.11 38.9014 187.331 37.9704 190.592C37.684 191.663 37.7107 192.794 38.0474 193.851C38.3974 195.209 58.5 249.431 59.5094 250.783C59.9883 251.485 60.6086 252.079 61.3304 252.527C62.0522 252.975 62.8597 253.267 63.701 253.384C64.5423 253.459 65.3841 253.247 66.089 252.781C66.7938 252.316 67.3201 251.625 67.5818 250.822Z" fill="#2F3941"/>
<path d="M101.268 107.966C101.692 104.451 101.912 100.914 101.927 97.3726C100.646 99.1198 97.16 101.486 91.84 103.349C87.3047 105.034 82.51 105.914 77.672 105.949C77.672 106.144 78.8368 112.042 75.6924 121.084C85.2675 119.164 94.1213 114.622 101.268 107.966Z" fill="#2F3941"/>
<path d="M65.2917 118.64V118.562C65.2147 118.174 65.2525 117.708 65.6025 117.552C65.9133 117.436 71.5791 123.025 71.7345 122.986C73.2479 122.482 75.3437 115.458 75.2653 111.654C75.2261 110.522 75.1096 109.394 74.9167 108.277C72.9974 109.847 71.2771 111.646 69.7941 113.634C69.7152 113.761 69.6011 113.862 69.4656 113.926C69.3301 113.99 69.179 114.013 69.0307 113.992C68.8824 113.971 68.7433 113.908 68.6303 113.81C68.5173 113.712 68.4352 113.583 68.3941 113.439C66.9185 107.502 64.7849 101.757 63.4647 95.7808C61.6027 96.0916 55.9355 96.4402 42.9743 105.021C36.5343 109.289 30.2063 116.819 25.8593 123.183C10.5321 145.689 8.86328 170.838 8.86328 170.838C16.0439 176.543 25.3581 178.521 34.5547 178.638C43.7135 178.755 52.6791 177.007 59.9745 171.498C59.9745 171.498 59.1989 152.87 60.2853 145.38C52.6105 140.694 45.5545 130.389 46.5471 129.314C47.0133 128.808 50.4279 133.194 51.9805 134.94C58.3113 142.842 67.5023 147.93 77.5599 149.1C96.5761 151.156 110.625 135.401 110.625 135.401C109.45 132.713 108.452 129.951 107.636 127.134C100.795 131.272 92.6511 132.695 84.8119 131.123C76.9727 129.55 70.0078 125.096 65.2917 118.64Z" fill="#2F3941"/>
<path d="M73.9467 106.96C71.9332 105.58 70.2492 103.774 69.015 101.668C67.7807 99.5626 67.0267 97.2105 66.8067 94.7798C66.1067 95.0892 64.6339 95.4798 64.3623 95.5946C66.1473 100.833 67.8161 106.267 69.3687 111.584C70.724 109.883 72.2589 108.332 73.9467 106.96Z" fill="#2F3941"/>
<path d="M139.611 66.5584C124.467 60.3984 113.082 81.6546 120.788 95.005C122.272 97.7846 124.521 100.081 127.269 101.624C130.017 103.167 133.148 103.891 136.295 103.712C139.441 103.532 142.47 102.456 145.024 100.611C147.578 98.7653 149.551 96.2275 150.71 93.297C152.701 88.2719 152.656 82.6687 150.583 77.6766C148.511 72.6844 144.575 68.6962 139.611 66.5584ZM125.794 94.8888C125.17 94.1245 124.743 93.2181 124.552 92.2498C124.51 92.0683 124.532 91.8776 124.616 91.7111C124.7 91.5446 124.84 91.4128 125.011 91.3388C125.182 91.2647 125.373 91.2532 125.552 91.3061C125.731 91.359 125.885 91.473 125.989 91.6282C126.543 92.4517 126.889 93.397 126.998 94.3834C126.997 94.5225 126.956 94.6583 126.878 94.774C126.801 94.8896 126.691 94.9799 126.563 95.0338C126.435 95.0876 126.293 95.1026 126.157 95.0768C126.02 95.051 125.894 94.9857 125.794 94.8888ZM132.044 71.0202C126.614 76.2548 125.72 80.4492 125.135 86.9396C125.058 87.6774 123.971 87.9098 123.777 87.1328C122.147 80.8468 125.912 73.3568 131.19 69.9408C131.849 69.5068 132.58 70.5162 132.044 71.0202Z" fill="#2F3941"/>
<path d="M159.21 218.26C148.02 223.055 137.167 229.049 124.708 229.593C114.658 230.013 104.838 226.759 97.9303 219.347C98.2537 217.485 100.208 153.934 100.337 145.727C100.329 145.557 100.256 145.397 100.133 145.28C100.01 145.162 99.8468 145.097 99.6768 145.097C99.5069 145.097 99.3434 145.162 99.2205 145.28C99.0975 145.397 99.0246 145.557 99.0167 145.727C98.3573 158.029 96.6885 206.967 96.5723 209.916C96.2361 213.113 96.171 216.333 96.3777 219.541C96.4064 219.743 96.5024 219.93 96.6503 220.071C96.7981 220.212 96.9891 220.299 97.1925 220.318C103.213 228.506 114.114 231.688 123.933 231.494C136.545 231.261 149.236 225.712 160.102 219.619C160.916 219.115 160.104 217.879 159.21 218.26Z" fill="#2F3941"/>
<path d="M104.683 222.337C105.16 219.087 105.329 215.8 105.187 212.518C105.303 209.065 105.963 188.767 106.157 182.092C106.584 168.512 107.277 154.848 107.244 141.265C107.236 141.106 107.167 140.955 107.052 140.845C106.936 140.735 106.782 140.673 106.623 140.673C106.463 140.673 106.309 140.735 106.194 140.845C106.078 140.955 106.009 141.106 106.002 141.265C104.97 156.307 105.194 161.854 103.44 212.129C103.111 215.522 103.072 218.937 103.324 222.337C103.363 223.074 104.535 222.999 104.683 222.337Z" fill="#2F3941"/>
<path d="M190.139 40.0902C190.801 39.6702 190.373 38.4214 189.557 38.7322C184.517 40.6726 179.662 43.0008 174.5 44.6304C158.601 49.5451 141.73 50.4255 125.406 47.1924C124.747 47.0762 124.436 48.0856 125.134 48.2396C136.084 50.7839 147.398 51.3622 158.55 49.9476C168.292 48.6946 182.298 45.112 190.139 40.0902Z" fill="#2F3941"/>
<path d="M166.855 59.4999C162.039 60.717 157.066 61.1892 152.107 60.8999C151.331 60.8621 151.331 62.0647 152.107 62.1039C156.958 62.3755 162.856 62.8795 167.359 60.7039C168.096 60.4267 167.59 59.2941 166.855 59.4999Z" fill="#2F3941"/>
<path d="M123.699 204.795C129.265 204.673 134.81 204.064 140.27 202.975C145.771 202.014 151.104 200.263 156.104 197.775C156.235 197.691 156.333 197.563 156.38 197.414C156.427 197.265 156.419 197.105 156.359 196.961C156.299 196.817 156.189 196.699 156.05 196.627C155.911 196.556 155.752 196.536 155.6 196.571C147.74 198.811 139.677 202.661 123.66 203.557C122.919 203.67 122.919 204.82 123.699 204.795Z" fill="#2F3941"/>
<path d="M156.027 167.228C151.372 169.258 146.521 170.806 141.551 171.848C136.41 172.818 131.157 173.053 125.949 172.548C125.249 172.471 125.095 173.668 125.794 173.792C136.001 175.192 147.644 174.024 156.57 168.514C157.19 168.12 156.768 166.927 156.027 167.228Z" fill="#2F3941"/>
<path d="M160.762 140.217C155.004 141.866 149.178 144.298 137.826 144.408C137.678 144.419 137.54 144.485 137.439 144.593C137.338 144.701 137.282 144.843 137.282 144.991C137.282 145.139 137.338 145.281 137.439 145.389C137.54 145.497 137.678 145.563 137.826 145.573C145.853 145.994 153.871 144.574 161.266 141.421C161.964 141.11 161.459 140.018 160.762 140.217Z" fill="#2F3941"/>
<path d="M160.762 124.577C154.835 125.881 148.784 128.1 137.088 128.653C136.929 128.66 136.778 128.729 136.668 128.845C136.558 128.96 136.496 129.114 136.496 129.274C136.496 129.433 136.558 129.587 136.668 129.703C136.778 129.818 136.929 129.887 137.088 129.894C145.005 129.777 153.737 128.962 161.15 125.896C161.322 125.842 161.467 125.723 161.552 125.564C161.637 125.405 161.656 125.219 161.605 125.046C161.554 124.873 161.437 124.726 161.28 124.639C161.122 124.551 160.936 124.529 160.762 124.577Z" fill="#2F3941"/>
<path d="M84.036 93.5299C84.1682 93.5202 84.2919 93.4608 84.3822 93.3637C84.4725 93.2666 84.5226 93.1389 84.5226 93.0063C84.5226 92.8737 84.4725 92.746 84.3822 92.6488C84.2919 92.5517 84.1682 92.4923 84.036 92.4827C83.4902 92.388 82.9305 92.4117 82.3947 92.5523C81.859 92.6929 81.3597 92.947 80.9308 93.2975C80.7265 93.4488 80.5593 93.6445 80.4417 93.8698C80.3241 94.0951 80.2591 94.3442 80.2517 94.5983C80.2443 94.8523 80.2946 95.1048 80.3989 95.3366C80.5032 95.5684 80.6587 95.7735 80.8538 95.9365C81.064 96.0728 81.3084 96.1472 81.5589 96.1512C81.8095 96.1552 82.0561 96.0886 82.2706 95.9591C82.4851 95.8296 82.6589 95.6423 82.772 95.4187C82.8851 95.1951 82.9331 94.9442 82.9104 94.6947C82.8951 94.5238 82.842 94.3585 82.7548 94.2107C82.6676 94.063 82.5486 93.9366 82.4064 93.8407C82.9255 93.6367 83.4782 93.5313 84.036 93.5299Z" fill="#2F3941"/>
<path d="M95.098 78.8997C93.4012 77.2617 90.268 78.0597 89.2754 81.0333C89.1223 80.6 88.8653 80.2108 88.5271 79.8996C88.1889 79.5885 87.7796 79.3649 87.335 79.2483C83.8042 78.0849 81.7476 81.9265 82.0962 84.9141C82.3678 87.1275 83.5326 90.6541 86.3648 90.4259C88.2282 90.2705 89.043 88.2139 89.4308 86.4289C89.7938 86.3642 90.1671 86.3906 90.5172 86.5059C91.9172 87.0099 91.2172 89.6489 91.0618 90.3097C90.3419 93.3765 88.4466 96.038 85.7838 97.7213C84.0403 98.7759 81.952 99.1026 79.9698 98.6309C77.9875 98.1592 76.2702 96.9268 75.1886 95.1999C75.1427 95.1234 75.0821 95.0567 75.0104 95.0037C74.9386 94.9506 74.8572 94.9122 74.7706 94.8906C74.5957 94.847 74.4107 94.8747 74.2562 94.9675C74.1018 95.0603 73.9905 95.2107 73.9469 95.3856C73.9033 95.5604 73.931 95.7455 74.0238 95.8999C74.7695 97.4521 76.0149 98.7088 77.5602 99.4685C76.1476 101.398 75.0704 103.552 74.3738 105.84C74.3433 105.972 74.3596 106.111 74.4201 106.232C74.4805 106.353 74.5813 106.45 74.7052 106.505C74.829 106.56 74.9682 106.57 75.0988 106.534C75.2294 106.498 75.3434 106.417 75.421 106.306C76.541 104.327 78.6032 99.9795 78.641 99.9403C80.3786 100.45 82.2174 100.507 83.9832 100.106C85.7489 99.7054 87.3831 98.8605 88.7308 97.6513C91.015 95.4351 92.4329 92.4761 92.7292 89.3073C96.2222 87.9031 98.0002 81.7025 95.098 78.8997ZM86.558 88.9503C84.9662 89.4529 84.0744 87.1653 83.758 86.0789C83.338 84.4493 83.1378 82.3927 84.535 81.1509C84.9062 80.8263 85.3581 80.608 85.8431 80.519C86.328 80.4301 86.828 80.4738 87.2902 80.6455C88.5698 81.2279 88.5698 83.0913 88.532 84.4493C88.4606 84.5599 88.5376 88.3273 86.5594 88.9503H86.558ZM92.6508 87.7085C92.4576 86.3085 91.6806 85.0317 90.2834 85.1087C90.192 84.0056 90.2575 82.895 90.478 81.8103C91.0604 79.7537 93.8534 78.6659 94.6304 81.2279C95.3696 83.6723 95.0602 86.5059 92.6522 87.7085H92.6508Z" fill="#2F3941"/>
<path d="M91.721 83.79C91.721 84.0616 91.6426 84.42 91.6426 84.5264C91.6426 86.0916 93.4626 86.198 93.1182 83.8264C93.1261 83.7314 93.1146 83.6358 93.0843 83.5454C93.054 83.455 93.0056 83.3718 92.942 83.3008C92.8784 83.2298 92.801 83.1725 92.7144 83.1325C92.6279 83.0925 92.5341 83.0706 92.4389 83.0681C92.3436 83.0656 92.2488 83.0826 92.1603 83.1181C92.0718 83.1535 91.9915 83.2067 91.9243 83.2743C91.8571 83.3419 91.8044 83.4225 91.7694 83.5112C91.7344 83.5998 91.718 83.6947 91.721 83.79Z" fill="#2F3941"/>
<path d="M92.3028 80.8008C92.234 80.7611 92.1579 80.7355 92.0791 80.7255C92.0002 80.7155 91.9202 80.7212 91.8436 80.7424C91.767 80.7636 91.6954 80.7999 91.633 80.849C91.5705 80.8981 91.5185 80.9592 91.4798 81.0287C91.4412 81.0981 91.4168 81.1746 91.408 81.2535C91.3992 81.3325 91.4062 81.4125 91.4286 81.4887C91.451 81.565 91.4883 81.636 91.5384 81.6977C91.5885 81.7594 91.6504 81.8105 91.7204 81.848C92.1852 82.128 92.6514 82.6642 93.1946 82.6642C93.2982 82.6623 93.3995 82.6334 93.4885 82.5804C93.5775 82.5273 93.6511 82.4519 93.702 82.3617C93.7529 82.2715 93.7794 82.1695 93.7788 82.0659C93.7782 81.9623 93.7506 81.8607 93.6986 81.771C93.2656 81.4036 92.7981 81.0787 92.3028 80.8008Z" fill="#2F3941"/>
<path d="M86.4809 82.1589C86.5121 82.0372 86.5073 81.9091 86.4671 81.79C86.4269 81.671 86.3531 81.5662 86.2546 81.4883C86.1561 81.4103 86.0371 81.3626 85.912 81.351C85.7869 81.3393 85.6612 81.3641 85.5499 81.4225C85.0715 81.9277 84.6547 82.4879 84.3081 83.0913C84.2432 83.2108 84.2227 83.3495 84.2502 83.4827C84.2778 83.6159 84.3517 83.735 84.4588 83.8189C84.5658 83.9028 84.6992 83.9461 84.8351 83.941C84.971 83.936 85.1008 83.8829 85.2013 83.7913C85.4337 83.5169 86.4431 82.5089 86.4809 82.1589Z" fill="#2F3941"/>
<path d="M85.705 84.6045C85.5502 85.2288 85.5502 85.8814 85.705 86.5057C85.7673 86.6037 85.8534 86.6844 85.9552 86.7403C86.057 86.7962 86.1713 86.8255 86.2874 86.8255C86.4036 86.8255 86.5178 86.7962 86.6196 86.7403C86.7214 86.6844 86.8075 86.6037 86.8698 86.5057C87.0963 85.8985 87.1501 85.2404 87.0252 84.6045C87.0174 84.4347 86.9444 84.2744 86.8215 84.157C86.6986 84.0396 86.5351 83.9741 86.3651 83.9741C86.1951 83.9741 86.0317 84.0396 85.9087 84.157C85.7858 84.2744 85.7128 84.4347 85.705 84.6045Z" fill="#2F3941"/>
<path d="M65.7186 87.5921C67.016 88.4477 68.4874 89.0043 70.0264 89.2217C68.8435 91.3221 67.9801 93.5869 67.4644 95.9417C67.2712 96.6011 68.2022 96.7957 68.4346 96.2133C69.3278 94.0405 71.8114 89.3449 71.6952 89.1895C73.048 89.1008 74.3624 88.7022 75.5368 88.0247C74.6288 87.555 73.8342 86.8928 73.2086 86.0843C72.0578 83.7813 73.6496 81.2249 75.3814 81.1549C76.3651 81.0972 77.3457 81.3123 78.215 81.7765C78.6983 80.3023 79.61 79.0056 80.8335 78.0518C82.0571 77.098 83.5372 76.5304 85.0848 76.4215C86.6304 77.3864 88.413 77.9043 90.235 77.9179C92.057 77.9315 93.8471 77.4402 95.407 76.4985C98.5122 74.3985 99.404 69.0085 99.0946 66.5249C99.0191 65.5237 98.7456 64.5474 98.29 63.6527C97.8343 62.758 97.2056 61.9627 96.4402 61.3129C95.6749 60.663 94.7881 60.1716 93.8314 59.8671C92.8746 59.5625 91.8669 59.451 90.8668 59.5389C89.1135 59.6885 87.4377 60.3283 86.0308 61.3852C84.6239 62.442 83.5426 63.8733 82.9106 65.5155C82.9106 65.5155 79.3798 59.8497 72.5506 63.6955C68.5914 65.9467 70.7306 71.5747 70.7306 71.5747C69.8841 71.1898 68.9323 71.103 68.0302 71.3285C67.1281 71.554 66.329 72.0785 65.7634 72.8165C62.5812 77.0851 67.8634 80.1119 67.8634 80.1119C67.8634 80.1119 61.6474 84.0949 65.7186 87.5921Z" fill="#2F3941"/>
<path d="M36.6506 258.507C34.7886 256.72 32.9643 254.858 31.0239 253.15C30.8709 253.027 30.6778 252.965 30.4817 252.976C30.2856 252.986 30.1003 253.069 29.9614 253.208C29.8225 253.347 29.7398 253.532 29.7292 253.728C29.7186 253.924 29.7808 254.117 29.904 254.27C32.116 256.638 34.5604 258.773 36.8899 260.983C37.3939 261.45 41.0031 264.203 37.3547 263.894C33.2368 263.577 29.25 262.302 25.7124 260.17C23.2288 258.655 19.7358 256.327 19.5034 253.145C19.5034 252.959 19.4296 252.781 19.2983 252.65C19.1671 252.519 18.989 252.445 18.8034 252.445C18.6177 252.445 18.4397 252.519 18.3084 252.65C18.1771 252.781 18.1034 252.959 18.1034 253.145C17.9872 256.645 21.5572 259.2 24.157 260.946C27.4917 263.201 31.2804 264.698 35.2562 265.33C36.8479 265.564 42.0868 266.147 40.9234 262.886C39.6128 261.32 38.1844 259.856 36.6506 258.507Z" fill="#2F3941"/>
<path d="M82.5226 256.256C78.5803 254.311 74.5385 252.575 70.414 251.055C70.2458 251.012 70.0677 251.032 69.9126 251.11C69.7575 251.188 69.6358 251.319 69.5697 251.479C69.5037 251.64 69.4977 251.819 69.5531 251.983C69.6084 252.148 69.7212 252.287 69.8708 252.375C72.6708 253.889 75.7312 254.975 78.6418 256.217C79.2634 256.488 82.7172 257.419 82.0186 258.584C81.6686 259.127 78.331 259.049 77.7108 259.049C72.0224 259.029 66.4739 257.284 61.7984 254.044C61.6638 253.973 61.5086 253.952 61.36 253.985C61.2115 254.017 61.0792 254.101 60.9864 254.222C60.8937 254.342 60.8465 254.491 60.8532 254.643C60.8598 254.795 60.9199 254.94 61.0228 255.052C63.8867 257.373 67.2153 259.052 70.7838 259.976C74.3522 260.9 78.0775 261.047 81.7078 260.408C84.2306 259.865 84.8914 257.65 82.5226 256.256Z" fill="#2F3941"/>
<path d="M115.161 132.843C115.014 132.773 114.846 132.761 114.69 132.809C114.534 132.857 114.401 132.961 114.319 133.101C114.236 133.242 114.209 133.408 114.243 133.568C114.277 133.727 114.369 133.868 114.502 133.963C117.839 136.409 123.389 138.194 127.425 136.763C131.654 135.25 132.431 130.36 132.78 126.479C132.777 126.348 132.745 126.219 132.686 126.103C132.626 125.986 132.54 125.885 132.436 125.806C132.331 125.728 132.21 125.674 132.081 125.649C131.952 125.625 131.82 125.63 131.694 125.664C129.045 126.372 126.238 126.195 123.7 125.16C122.883 124.888 122.379 126.13 123.117 126.56C125.546 127.755 128.295 128.136 130.957 127.646C130.134 134.96 126.774 138.361 115.161 132.843Z" fill="#2F3941"/>
<path d="M110.543 128.574C113.134 127.362 115.856 126.451 118.654 125.858C120.129 125.587 120.089 125.625 121.022 124.458C121.797 123.488 122.728 122.673 123.542 121.78C123.643 121.676 123.702 121.538 123.709 121.393C123.717 121.248 123.671 121.105 123.581 120.992C123.49 120.878 123.362 120.801 123.219 120.774C123.076 120.748 122.929 120.775 122.804 120.849C121.622 121.837 120.508 122.903 119.469 124.04C118.783 124.398 118.03 124.609 117.257 124.66C114.688 125.264 112.218 126.231 109.923 127.533C109.807 127.625 109.729 127.756 109.702 127.901C109.676 128.047 109.703 128.197 109.779 128.324C109.854 128.451 109.973 128.546 110.114 128.593C110.254 128.639 110.407 128.632 110.543 128.574Z" fill="#2F3941"/>
<path d="M125.44 124.383C126.422 120.078 127.073 115.704 127.386 111.3C127.378 111.171 127.326 111.049 127.239 110.954C127.151 110.859 127.034 110.798 126.906 110.779C126.778 110.761 126.648 110.788 126.538 110.855C126.427 110.921 126.343 111.024 126.3 111.146C125.265 115.443 124.577 119.816 124.243 124.223C124.251 124.366 124.309 124.502 124.406 124.607C124.503 124.712 124.634 124.78 124.776 124.798C124.917 124.817 125.061 124.786 125.183 124.71C125.304 124.634 125.395 124.519 125.44 124.383Z" fill="#2F3941"/>
<path d="M129.36 125.548C130.651 120.709 131.763 115.806 132.698 110.839C132.853 109.908 131.494 109.519 131.261 110.451C130.096 115.34 129.161 120.309 128.311 125.237C128.201 125.935 129.178 126.248 129.36 125.548Z" fill="#2F3941"/>
<path d="M121.837 152.015C124.165 152.282 124.98 149.415 125.446 147.707C126.317 144.591 126.632 141.346 126.377 138.121C126.3 137.385 125.174 137.346 125.214 138.121C125.251 140.253 125.095 142.384 124.747 144.487C124.553 145.457 124.047 148.095 123.893 148.561C123.545 150.661 120.75 151.395 121.177 148.522C121.215 148.057 122.148 139.982 122.341 137.966C122.419 137.151 121.099 136.996 120.906 137.773C120.175 141.091 119.733 144.467 119.586 147.862C119.509 149.531 119.78 151.778 121.837 152.015Z" fill="#2F3941"/>
<path d="M119.663 94.9662C121.414 98.3877 124.234 101.144 127.694 102.818C131.154 104.492 135.065 104.992 138.835 104.241C142.57 103.329 145.932 101.285 148.461 98.3885C150.99 95.4919 152.561 91.8844 152.961 88.06C153.931 78.9012 148.692 68.74 139.801 65.744C131.844 63.0672 126.023 65.9778 121.909 71.5274C117.024 78.162 115.753 87.549 119.663 94.9662ZM128.623 67.606C130.274 66.8585 132.058 66.4461 133.87 66.3928C135.682 66.3394 137.486 66.6462 139.179 67.2952C146.203 69.7788 150.821 76.8432 151.288 84.4102C151.575 87.9406 150.773 91.4743 148.99 94.5347C147.206 97.5951 144.527 100.035 141.314 101.525C138.027 102.906 134.364 103.111 130.943 102.107C127.521 101.103 124.55 98.9513 122.53 96.0134C115.618 86.3436 120.591 71.8942 128.627 67.606H128.623Z" fill="#2F3941"/>
<path d="M126.804 107.618C131.681 109.87 137.168 110.444 142.405 109.248C147.292 107.858 151.577 104.881 154.585 100.787C157.621 96.5396 159.249 91.448 159.243 86.2273C159.57 81.2541 158.606 76.2809 156.443 71.7905C151.204 61.7385 138.476 56.4227 127.998 61.1505C106.579 70.9925 109.028 99.4531 126.804 107.618ZM128.744 62.5995C142.613 58.3505 156.68 66.2549 157.385 82.7805C157.773 87.387 156.999 92.0173 155.134 96.2471C153.069 100.406 149.722 103.793 145.588 105.907C140.981 108.089 135.732 108.504 130.84 107.072C115.565 102.925 109.34 83.4021 118.344 70.5165C121.049 67.0043 124.638 64.2724 128.744 62.5995Z" fill="#2F3941"/>
<path d="M263.527 91.6284C262.775 91.9851 261.997 92.2837 261.199 92.5216C261.16 85.1478 261.16 77.7348 261.121 70.361C263.402 69.8997 265.551 68.9318 267.408 67.5288C270.24 65.3546 272.064 61.436 270.551 57.9808C269.193 54.8378 264.923 53.092 262.246 55.6918C262.142 55.8065 262.076 55.9516 262.06 56.1059C262.044 56.2602 262.077 56.4158 262.155 56.5499C262.233 56.684 262.352 56.7897 262.494 56.8517C262.636 56.9136 262.795 56.9286 262.946 56.8944C265.624 56.2742 269.97 60.7374 263.566 64.3074C262.785 64.699 261.966 65.0109 261.122 65.2384C261.122 60.4658 261.083 46.6492 261.083 46.6492C263.396 46.192 265.573 45.2096 267.447 43.7778C270.281 41.6036 272.105 37.685 270.592 34.2298C269.234 31.0868 264.964 29.341 262.287 31.9408C261.821 32.407 262.287 33.415 262.987 33.1434C263.026 33.1434 263.065 33.1056 263.104 33.1056C263.236 33.1715 263.385 33.1982 263.531 33.1826C264.119 33.0545 264.728 33.0612 265.313 33.2023C265.898 33.3435 266.443 33.6153 266.908 33.9974C267.8 36.7148 266.287 39.1984 263.608 40.5956C262.8 40.9846 261.956 41.2963 261.088 41.5266C261.049 32.7164 261.128 14.438 261.167 14.1272C261.178 13.8458 261.078 13.5713 260.89 13.3621C260.701 13.153 260.438 13.0256 260.157 13.0072L260.118 12.9694C241.684 3.84841 219.447 6.91441 200.043 10.8344C180.469 14.7894 161.9 20.6694 136.551 20.7744C122.045 20.7744 114.535 18.4952 105.621 13.7114C105.155 13.479 103.681 12.8574 103.602 14.5654C102.866 29.1576 100.304 122.925 100.536 127.111C100.545 127.322 100.635 127.521 100.787 127.667C100.939 127.812 101.141 127.894 101.352 127.894C101.562 127.894 101.765 127.812 101.917 127.667C102.069 127.521 102.159 127.322 102.167 127.111C102.904 119.777 102.711 112.248 102.904 104.874C103.098 97.6946 105.116 23.8026 105.116 15.8072C118.542 25.4672 142.667 23.335 158.316 21.4352C190.04 17.483 226.937 1.54261 257.856 13.8668C256.264 14.6046 253.005 16.0788 252.966 16.0788C236.462 10.098 215.812 12.7636 198.749 16.6612C168.229 23.7102 142.485 34.6036 111.896 26.674C110.808 26.4024 110.692 26.7902 110.653 27.2564C109.606 43.1282 108.519 90.7478 108.287 98.6256C107.64 120.155 107.447 118.917 107.626 122.687C107.626 122.883 107.704 123.071 107.842 123.209C107.98 123.347 108.168 123.425 108.364 123.425C108.559 123.425 108.747 123.347 108.885 123.209C109.024 123.071 109.102 122.883 109.102 122.687C109.529 118.612 109.411 114.381 109.566 110.268C110.406 82.2862 111.934 43.5202 111.896 28.1104C145.374 39.2698 185.243 18.1956 221.103 15.2304C230.852 14.1902 240.71 14.9596 250.18 17.4998C222.278 30.9944 193.719 46.2306 167.944 62.7898C165.405 64.481 160.039 271.486 160.493 272.241C160.57 272.423 160.689 272.584 160.841 272.712C160.992 272.839 161.171 272.929 161.364 272.975C161.557 273.02 161.757 273.019 161.95 272.972C162.142 272.926 162.321 272.834 162.471 272.706C163.209 272.202 225.419 229.166 255.458 205.528C260.335 201.647 261.284 201.337 261.434 200.056C261.532 198.987 261.511 180.65 261.511 179.487C263.65 178.994 265.66 178.055 267.411 176.732C270.243 174.559 272.067 170.639 270.554 167.185C269.196 164.042 264.926 162.295 262.249 164.896C261.783 165.361 262.249 166.37 262.949 166.099C263.711 165.777 264.566 165.749 265.348 166.022C266.13 166.294 266.782 166.847 267.18 167.573C267.955 168.973 266.247 172.152 263.531 173.512C262.865 173.83 262.178 174.102 261.475 174.326C261.475 174.326 261.436 158.725 261.396 150.963C268.357 149.497 272.662 143.518 270.517 138.622C269.158 135.478 264.889 133.732 262.211 136.332C261.745 136.798 262.211 137.807 262.911 137.536C262.95 137.536 265.745 136.603 266.831 138.388C267.918 140.173 266.21 143.589 263.533 144.987C262.846 145.32 262.132 145.592 261.398 145.801C261.359 138.894 261.359 132.024 261.321 125.116C263.527 124.624 265.603 123.67 267.414 122.316C270.246 120.144 272.07 116.224 270.557 112.77C269.199 109.625 264.929 107.88 262.252 110.479C262.15 110.595 262.086 110.74 262.071 110.893C262.056 111.047 262.09 111.201 262.167 111.334C262.245 111.467 262.362 111.573 262.503 111.636C262.644 111.698 262.801 111.715 262.952 111.683C263.606 111.363 264.349 111.273 265.06 111.428C265.772 111.583 266.41 111.974 266.872 112.537C267.771 115.276 266.326 118.587 261.322 119.988C261.322 118.087 261.244 103.339 261.244 97.8276C268.354 96.3828 272.724 90.3852 270.558 85.4488C269.2 82.3044 264.93 80.5586 262.253 83.1584C262.149 83.2731 262.083 83.4182 262.067 83.5725C262.051 83.7268 262.084 83.8824 262.162 84.0165C262.24 84.1506 262.359 84.2563 262.501 84.3183C262.643 84.3802 262.802 84.3952 262.953 84.361C264.773 83.941 266.173 84.0516 266.873 85.215C267.757 87.7476 266.252 90.2466 263.527 91.6284ZM258.987 120.347C256.657 120.697 253.398 120.114 254.795 117.67C254.867 117.54 254.889 117.39 254.859 117.245C254.828 117.1 254.746 116.971 254.629 116.882C254.511 116.793 254.365 116.748 254.218 116.758C254.07 116.767 253.931 116.829 253.825 116.932C250.791 119.787 253.08 125.192 259.025 125.192C259.064 132.178 259.064 139.203 259.102 146.192C256.736 146.58 253.362 146.154 254.795 143.553C254.868 143.424 254.892 143.272 254.862 143.126C254.832 142.981 254.75 142.851 254.632 142.761C254.513 142.671 254.366 142.627 254.218 142.638C254.07 142.648 253.93 142.711 253.825 142.817C250.815 145.649 253.017 151.077 259.102 151.077C259.102 156.976 259.141 174.751 259.141 174.751C256.736 175.178 253.981 174.284 254.756 172.112C254.989 171.451 254.29 170.87 253.786 171.374C250.808 174.174 252.898 179.634 259.141 179.634C259.141 183.166 259.491 199 259.259 199.815C258.482 200.553 223.592 226.943 215.793 232.648C200.036 244.212 164.448 268.506 162.818 269.594C162.818 269.088 168.988 66.0028 169.066 64.6434C197.889 46.5516 227.803 30.2599 258.637 15.8618C258.599 17.0798 258.655 38.5796 258.676 41.9018C256.425 42.2126 254.368 41.8626 254.524 39.6506C254.585 39.4882 254.663 39.3325 254.756 39.1858C254.827 39.0564 254.85 38.9056 254.819 38.7609C254.789 38.6163 254.707 38.4875 254.59 38.398C254.472 38.3085 254.326 38.2643 254.178 38.2735C254.031 38.2827 253.892 38.3446 253.786 38.448C250.833 41.227 252.893 46.498 258.714 46.708C258.714 52.9954 258.753 59.322 258.753 65.608C253.825 66.2296 254.64 63.0474 254.756 62.892C254.827 62.7626 254.85 62.6118 254.819 62.4671C254.789 62.3225 254.707 62.1937 254.59 62.1042C254.472 62.0147 254.326 61.9705 254.178 61.9797C254.031 61.9889 253.892 62.0508 253.786 62.1542C250.87 64.8982 252.806 70.207 258.792 70.4212C258.832 77.9112 258.832 85.4012 258.869 92.8912C256.58 93.2398 253.67 91.8818 254.756 90.213C255.144 89.6306 254.29 88.9712 253.786 89.4752C250.688 92.3914 253.202 97.7352 258.869 97.7352C258.93 102.403 258.987 110.342 258.987 120.347Z" fill="#2F3941"/>
</svg>
